<svg width="48" height="48" viewBox="0 0 48 48" fill="none" xmlns="http://www.w3.org/2000/svg">
<path d="M24 3.95508C12.954 3.95508 4 12.8068 4 23.7267C4 34.6466 12.954 43.4983 24 43.4983C35.046 43.4983 44 34.6466 44 23.7267C44 12.8068 35.046 3.95508 24 3.95508Z" fill="url(#paint0_linear_376_2005)"/>
<path d="M26.7071 28.9661H31.8831L32.6961 23.7682H26.7071V20.927C26.7071 18.7679 27.4211 16.853 29.4641 16.853H32.7471V12.3174C32.1701 12.2403 30.9501 12.0723 28.6451 12.0723C23.8311 12.0723 21.0091 14.5852 21.0091 20.3111V23.7692H16.0601V28.9671H21.0081V43.2541C21.9881 43.3984 22.9811 43.4973 24.0001 43.4973C24.9211 43.4973 25.8201 43.4143 26.7071 43.2956V28.9661Z" fill="white"/>
<defs>
<linearGradient id="paint0_linear_376_2005" x1="9.993" y1="9.87965" x2="40.2634" y2="40.4996" gradientUnits="userSpaceOnUse">
<stop stop-color="#2AA4F4"/>
<stop offset="1" stop-color="#007AD9"/>
</linearGradient>
</defs>
</svg>
