<svg width="47" height="49" viewBox="0 0 47 49" fill="none" xmlns="http://www.w3.org/2000/svg">
<path d="M33.3083 42.393L13.725 42.4122C9.41667 42.4163 5.88874 38.7857 5.88384 34.3434L5.86524 14.1511C5.86132 9.70875 9.3824 6.07111 13.6907 6.06606L33.2741 6.04688C37.5824 6.04284 41.1103 9.67342 41.1152 14.1157L41.1338 34.308C41.1387 38.7513 37.6167 42.389 33.3083 42.393Z" fill="url(#paint0_radial_376_2008)"/>
<path d="M33.3083 42.393L13.725 42.4122C9.41667 42.4163 5.88874 38.7857 5.88384 34.3434L5.86524 14.1511C5.86132 9.70875 9.3824 6.07111 13.6907 6.06606L33.2741 6.04688C37.5824 6.04284 41.1103 9.67342 41.1152 14.1157L41.1338 34.308C41.1387 38.7513 37.6167 42.389 33.3083 42.393Z" fill="url(#paint1_radial_376_2008)"/>
<path d="M23.5002 31.2987C19.7216 31.2987 16.646 28.1285 16.646 24.2314C16.646 20.3343 19.7216 17.1641 23.5002 17.1641C27.2788 17.1641 30.3543 20.3343 30.3543 24.2314C30.3543 28.1285 27.2788 31.2987 23.5002 31.2987ZM23.5002 19.1833C20.8006 19.1833 18.6043 21.4479 18.6043 24.2314C18.6043 27.0149 20.8006 29.2794 23.5002 29.2794C26.1997 29.2794 28.396 27.0149 28.396 24.2314C28.396 21.4479 26.1997 19.1833 23.5002 19.1833Z" fill="white"/>
<path d="M30.8438 18.1734C31.6549 18.1734 32.3125 17.4953 32.3125 16.659C32.3125 15.8226 31.6549 15.1445 30.8438 15.1445C30.0326 15.1445 29.375 15.8226 29.375 16.659C29.375 17.4953 30.0326 18.1734 30.8438 18.1734Z" fill="white"/>
<path d="M29.3752 37.3555H17.6252C13.8466 37.3555 10.771 34.1853 10.771 30.2882V18.1728C10.771 14.2757 13.8466 11.1055 17.6252 11.1055H29.3752C33.1538 11.1055 36.2293 14.2757 36.2293 18.1728V30.2882C36.2293 34.1853 33.1538 37.3555 29.3752 37.3555ZM17.6252 13.1247C14.9256 13.1247 12.7293 15.3893 12.7293 18.1728V30.2882C12.7293 33.0717 14.9256 35.3362 17.6252 35.3362H29.3752C32.0747 35.3362 34.271 33.0717 34.271 30.2882V18.1728C34.271 15.3893 32.0747 13.1247 29.3752 13.1247H17.6252Z" fill="white"/>
<defs>
<radialGradient id="paint0_radial_376_2008" cx="0" cy="0" r="1" gradientUnits="userSpaceOnUse" gradientTransform="translate(18.9763 42.4385) scale(43.9636 45.3307)">
<stop stop-color="#FFDD55"/>
<stop offset="0.328" stop-color="#FF543F"/>
<stop offset="0.348" stop-color="#FC5245"/>
<stop offset="0.504" stop-color="#E64771"/>
<stop offset="0.643" stop-color="#D53E91"/>
<stop offset="0.761" stop-color="#CC39A4"/>
<stop offset="0.841" stop-color="#C837AB"/>
</radialGradient>
<radialGradient id="paint1_radial_376_2008" cx="0" cy="0" r="1" gradientUnits="userSpaceOnUse" gradientTransform="translate(11.5405 5.59286) scale(29.1919 20.0554)">
<stop stop-color="#4168C9"/>
<stop offset="0.999" stop-color="#4168C9" stop-opacity="0"/>
</radialGradient>
</defs>
</svg>
