<svg width="47" height="49" viewBox="0 0 47 49" fill="none" xmlns="http://www.w3.org/2000/svg">
<path d="M44.0744 34.8916C43.6446 37.1531 41.8184 38.8765 39.5624 39.1996C36.0168 39.7377 30.1076 40.3839 23.4463 40.3839C16.8927 40.3839 10.9835 39.7377 7.3302 39.1996C5.0742 38.8765 3.24708 37.1531 2.8182 34.8916C2.38835 32.415 1.9585 28.7531 1.9585 24.23C1.9585 19.7069 2.38835 16.0451 2.8182 13.5685C3.24806 11.3069 5.0742 9.58353 7.3302 9.26045C10.8758 8.72233 16.785 8.07617 23.4463 8.07617C30.1076 8.07617 35.9091 8.72233 39.5624 9.26045C41.8184 9.58353 43.6455 11.3069 44.0744 13.5685C44.5043 16.0451 45.0418 19.7069 45.0418 24.23C44.9341 28.7531 44.5043 32.415 44.0744 34.8916Z" fill="url(#paint0_linear_376_2000)"/>
<path opacity="0.05" d="M31.678 22.6551L20.4803 14.9578C19.9153 14.5691 19.1936 14.5327 18.5954 14.8639C17.9971 15.194 17.625 15.8331 17.625 16.5328V31.9274C17.625 32.6271 17.9971 33.2671 18.5954 33.5973C18.8676 33.7477 19.1643 33.8214 19.4609 33.8214C19.8174 33.8214 20.1718 33.7144 20.4793 33.5034L31.677 25.8061C32.1891 25.4537 32.4946 24.8651 32.4946 24.2311C32.4956 23.596 32.1891 23.0074 31.678 22.6551Z" fill="black"/>
<path opacity="0.07" d="M20.2503 15.3844L30.8155 22.6475C31.4902 23.1473 31.9445 23.5946 31.9445 24.1751C31.9445 24.7556 31.7252 25.1605 31.2444 25.5219C30.8811 25.7945 20.4295 32.9567 20.4295 32.9567C19.5473 33.5665 18.1147 33.4373 18.1147 31.4433V16.9059C18.1147 14.8816 19.6657 14.9825 20.2503 15.3844Z" fill="black"/>
<path d="M18.604 31.8721V16.5915C18.604 15.8414 19.4148 15.3931 20.0209 15.8101L31.1364 23.4509C31.6778 23.8224 31.6778 24.6422 31.1364 25.0147L20.0209 32.6555C19.4148 33.0705 18.604 32.6232 18.604 31.8721Z" fill="white"/>
<defs>
<linearGradient id="paint0_linear_376_2000" x1="9.61166" y1="9.96516" x2="41.329" y2="40.7259" gradientUnits="userSpaceOnUse">
<stop stop-color="#F44F5A"/>
<stop offset="0.443" stop-color="#EE3D4A"/>
<stop offset="1" stop-color="#E52030"/>
</linearGradient>
</defs>
</svg>
